# xmcd CD database file
#
# Track frame offsets:
#	150
#	16235
#	31125
#	47007
#	60188
#	76254
#	92981
#	109156
#	130671
#	144358
#	165383
#
# Disc length: 2620 seconds
#
# Revision: 0
# Processed by: cddbd v1.5.2PL0 Copyright (c) Steve Scherf et al.
# Submitted via: CDex 1.81
#
DISCID=7a0a3a0b
DTITLE=Alabama - Box Set CD #4
DYEAR=2013
DGENRE=Country
TTITLE0=T.L.C. A.S.A.P
TTITLE1=We Can't Love Like THis Anymore
TTITLE2=Give Me One More Shot
TTITLE3=She Ain't Your Ordinary Girl
TTITLE4=In Pictures
TTITLE5=The Maker Said Take Her
TTITLE6=Sad Lookin' Moon
TTITLE7=Dancin', Shaggin' On The Boulevard
TTITLE8=How Do You Fall In Love
TTITLE9=Good Must Have Spent A Little More Time On You
TTITLE10=When It All Goes South
EXTD=YEAR: 2013
EXTT0=
EXTT1=
EXTT2=
EXTT3=
EXTT4=
EXTT5=
EXTT6=
EXTT7=
EXTT8=
EXTT9=
EXTT10=
PLAYORDER=
